# xmcd CD database file
#
# Track frame offsets:
#	150
#	10299
#	23801
#	34381
#	47853
#	60128
#	72953
#	84319
#	96497
#	109182
#	122289
#	135346
#	149859
#	164371
#	175761
#	191174
#	201426
#	213354
#	224774
#	238507
#
# Disc length: 3325 seconds
#
# Revision: 0
# Processed by: cddbd v1.4PL0 Copyright (c) Steve Scherf et al.
# Submitted via: CDex 1.50beta9
#
DISCID=290cfb14
DTITLE=Art Tatum - Battery Bounce
DYEAR=1900
DGENRE=Jazz
TTITLE0=Tiger Rag
TTITLE1=Sweet Emaline, My Gal
TTITLE2=Emaline
TTITLE3=Moonglow
TTITLE4=Love Me
TTITLE5=Cocktails for Two
TTITLE6=St. Louis Blues
TTITLE7=Begin the Beguine
TTITLE8=Rosetta
TTITLE9=Indiana
TTITLE10=Wee Baby Blues
TTITLE11=Stompin' at the Savoy
TTITLE12=Last Goodbye Blues
TTITLE13=Battery Bounce
TTITLE14=Lucielle
TTITLE15=I Got Rhythm
TTITLE16=Cocktails for Two
TTITLE17=I Ain't Got Nobody
TTITLE18=Deep Purple
TTITLE19=After You've Gone
EXTD=
EXTT0=
EXTT1=
EXTT2=
EXTT3=
EXTT4=
EXTT5=
EXTT6=
EXTT7=
EXTT8=
EXTT9=
EXTT10=
EXTT11=
EXTT12=
EXTT13=
EXTT14=
EXTT15=
EXTT16=
EXTT17=
EXTT18=
EXTT19=
PLAYORDER=
